<?xml version="1.0" ?>
<!-- Uploaded to: SVG Repo, www.svgrepo.com, Generator: SVG Repo Mixer Tools -->
<svg width="800px" height="800px" viewBox="0 0 24 24" version="1.1" xml:space="preserve" xmlns="http://www.w3.org/2000/svg" xmlns:xlink="http://www.w3.org/1999/xlink">
<style type="text/css">
	.st0{opacity:0.2;fill:none;stroke:#000000;stroke-width:5.000000e-02;stroke-miterlimit:10;}
</style>
<g id="Layer_Grid"/>
<g id="Layer_2">
<path d="M19.2,7.8c0-0.2-0.1-0.3-0.2-0.5c-0.3-0.3-0.7-0.6-1-0.8l-0.9-2.8C16.8,3.3,16.4,3,16,3h-1c-0.6,0-1,0.4-1,1v2.5   c-0.2,0.1-0.4,0.3-0.6,0.5h-2.7c-0.2-0.2-0.4-0.3-0.6-0.5V4c0-0.6-0.4-1-1-1H8C7.6,3,7.2,3.3,7.1,3.7L6.1,6.5   C5.7,6.7,5.4,7,5.1,7.3C4.9,7.4,4.9,7.6,4.8,7.8l-1.6,7.9L3,16.8c0,0.1,0,0.1,0,0.2c0,2.2,1.8,4,4,4s4-1.8,4-4v-3h2v3   c0,2.2,1.8,4,4,4s4-1.8,4-4c0-0.5-0.1-0.9-0.3-1.3L19.2,7.8z M7,19c-1.1,0-2-0.8-2-1.9l0.2-0.9c0-0.1,0.1-0.2,0.2-0.3   c0-0.1,0.1-0.1,0.1-0.2c0.1-0.1,0.2-0.2,0.2-0.2c0.1,0,0.1-0.1,0.2-0.2c0.1-0.1,0.2-0.1,0.3-0.2c0.1,0,0.1-0.1,0.2-0.1   C6.6,15,6.8,15,7,15c1.1,0,2,0.9,2,2S8.1,19,7,19z M9,13.5c-0.1-0.1-0.3-0.1-0.4-0.2c0,0,0,0,0,0c-0.2-0.1-0.4-0.2-0.7-0.2   c-0.1,0-0.1,0-0.2,0C7.5,13,7.2,13,7,13c-0.2,0-0.4,0-0.6,0c-0.1,0-0.1,0-0.2,0c-0.1,0-0.3,0.1-0.4,0.1c0,0,0,0,0,0l0.9-4.7   C7.3,7.9,8.3,7.9,9,8.3V13.5z M13,12h-2V9h2V12z M15,8.3c0.7-0.4,1.7-0.3,2.3,0.2l0.9,4.7c0,0,0,0,0,0c-0.2-0.1-0.5-0.1-0.8-0.2   c0,0-0.1,0-0.1,0c-0.1,0-0.2,0-0.4,0c-0.1,0-0.2,0-0.3,0c-0.1,0-0.1,0-0.2,0c-0.2,0-0.4,0.1-0.6,0.1c-0.1,0-0.1,0-0.2,0.1   c-0.2,0.1-0.3,0.1-0.5,0.2c-0.1,0-0.1,0-0.2,0.1V8.3z M17,19c-1.1,0-2-0.9-2-2s0.9-2,2-2c0.2,0,0.4,0,0.6,0.1   c0.1,0,0.1,0.1,0.2,0.1c0.1,0,0.2,0.1,0.3,0.2c0.1,0,0.1,0.1,0.2,0.2c0.1,0.1,0.2,0.1,0.2,0.2c0.1,0.1,0.1,0.1,0.1,0.2   c0.1,0.1,0.1,0.2,0.2,0.3l0.2,0.9C19,18.2,18.1,19,17,19z"/>
</g>
</svg>